<?xml version="1.0" encoding="iso-8859-1"?>
<!-- Uploaded to: SVG Repo, www.svgrepo.com, Generator: SVG Repo Mixer Tools -->
<svg version="1.1" id="Layer_1" xmlns="http://www.w3.org/2000/svg" xmlns:xlink="http://www.w3.org/1999/xlink" 
	 viewBox="0 0 496.524 496.524" xml:space="preserve">
<polygon style="fill:#1D9AAE;" points="304.124,165.062 304.124,235.462 256.124,259.462 256.124,189.062 "/>
<polygon style="fill:#E94545;" points="240.124,189.062 240.124,259.462 192.124,235.462 192.124,165.062 "/>
<polygon style="fill:#FF7D00;" points="294.524,152.262 248.124,175.462 201.724,152.262 248.124,129.062 "/>
<g>
	<path style="fill:#42210B;" d="M495.324,52.262c1.6,2.4,1.6,5.6,0,8l-8.8,13.6l-13.6-8.8l0.8-1.6h-1.6v-15.2h16
		C491.324,48.262,493.724,49.862,495.324,52.262z"/>
	<polygon style="fill:#42210B;" points="468.924,101.862 452.124,129.062 438.524,120.262 456.124,93.062 	"/>
	<rect x="412.124" y="48.262" style="fill:#42210B;" width="29.6" height="16"/>
	<polygon style="fill:#42210B;" points="434.524,156.262 417.724,184.262 404.124,175.462 421.724,148.262 	"/>
	<polygon style="fill:#42210B;" points="400.924,211.462 383.324,238.662 369.724,230.662 387.324,202.662 	"/>
	<rect x="352.924" y="48.262" style="fill:#42210B;" width="29.6" height="16"/>
	<polygon style="fill:#42210B;" points="332.124,321.062 314.524,348.262 301.724,340.262 318.524,312.262 	"/>
	<rect x="292.924" y="48.262" style="fill:#42210B;" width="29.6" height="16"/>
	<polygon style="fill:#42210B;" points="297.724,376.262 280.124,403.462 267.324,394.662 284.124,367.462 	"/>
	<path style="fill:#42210B;" d="M263.324,430.662l-8.8,13.6c-0.8,2.4-4,4-6.4,4s-5.6-1.6-7.2-4l-8.8-13.6l13.6-8.8l1.6,2.4l1.6-2.4
		L263.324,430.662z"/>
	<polygon style="fill:#42210B;" points="212.124,367.462 228.924,394.662 216.124,403.462 198.524,376.262 	"/>
	<rect x="173.724" y="48.262" style="fill:#42210B;" width="29.6" height="16"/>
	<polygon style="fill:#42210B;" points="177.724,312.262 195.324,340.262 181.724,348.262 164.124,321.062 	"/>
	<path style="fill:#42210B;" d="M248.124,129.062l-46.4,23.2l46.4,23.2l46.4-23.2L248.124,129.062z M192.124,165.062v70.4l48,24
		v-70.4L192.124,165.062z M256.124,189.062v70.4l48-24v-70.4L256.124,189.062z M310.524,249.862l-58.4,29.6c-1.6,0.8-2.4,0.8-4,0.8
		c-0.8,0-2.4,0-3.2-0.8l0,0l-58.4-29.6l-28.8,28.8l4,6.4l-13.6,8.8l-17.6-27.2l13.6-8.8l4.8,7.2l28-28v-84.8c0-3.2,1.6-5.6,4-7.2
		l60-29.6v-51.2h-7.2v-16h29.6v16h-7.2v51.2l60,29.6c2.4,1.6,4,4,4,7.2v84.8l28,28l4.8-7.2l13.6,8.8l-16.8,27.2l-13.6-8.8l4-6.4
		L310.524,249.862z"/>
	<rect x="113.724" y="48.262" style="fill:#42210B;" width="29.6" height="16"/>
	<polygon style="fill:#42210B;" points="108.924,202.662 126.524,230.662 112.924,238.662 95.324,211.462 	"/>
	<polygon style="fill:#42210B;" points="74.524,148.262 92.124,175.462 78.524,184.262 60.924,156.262 	"/>
	<rect x="53.724" y="48.262" style="fill:#42210B;" width="29.6" height="16"/>
	<polygon style="fill:#42210B;" points="40.924,93.062 57.724,120.262 44.124,129.062 27.324,101.862 	"/>
	<path style="fill:#42210B;" d="M0.924,52.262c1.6-2.4,4-4,7.2-4h16v16h-1.6l0.8,1.6l-13.6,8.8l-8.8-13.6
		C0.124,57.862-0.676,54.662,0.924,52.262z"/>
</g>
</svg>