<?xml version="1.0" encoding="iso-8859-1"?>
<!-- Uploaded to: SVG Repo, www.svgrepo.com, Generator: SVG Repo Mixer Tools -->
<svg version="1.1" id="Layer_1" xmlns="http://www.w3.org/2000/svg" xmlns:xlink="http://www.w3.org/1999/xlink" 
	 viewBox="0 0 512 512" xml:space="preserve">
<path style="fill:#FFF8EF;" d="M272,136h-16H88v192h184h152V136H272z M280,176c0,4-4,8-8,8h-16c-4,0-8-4-8-8h-16.8
	c8.8,8,14.4,19.2,16,32H272c4,0,8,4,8,8v80c0,4-4,8-8,8h-80c-4,0-8-4-8-8v-24.8c-27.2-4-48-27.2-48-55.2c0-16,6.4-29.6,16.8-40H136
	c0,4-4,8-8,8h-16c-4,0-8-4-8-8v-16c0-4,4-8,8-8h16c4,0,8,4,8,8h112c0-4,4-8,8-8h16c4,0,8,4,8,8V176z M400,288h-80v-16h80V288z
	 M400,256h-80v-16h80V256z M400,224h-80v-16h80V224z M400,192h-80v-16h80V192z"/>
<g>
	<rect x="320" y="272" style="fill:#42210B;" width="80" height="16"/>
	<rect x="320" y="240" style="fill:#42210B;" width="80" height="16"/>
	<rect x="320" y="208" style="fill:#42210B;" width="80" height="16"/>
	<rect x="320" y="176" style="fill:#42210B;" width="80" height="16"/>
</g>
<path style="fill:#996632;" d="M336,400c4,0,8-4,8-8v-16h120h32v0.8c0,16.8-13.6,31.2-31.2,31.2H336V400z"/>
<path style="fill:#EE5656;" d="M264,224v64h-64v-16.8c24.8-3.2,44-23.2,47.2-47.2H264z"/>
<path style="fill:#FF7D00;" d="M200,224h31.2c-3.2,16-15.2,28-31.2,31.2V224z"/>
<path style="fill:#FF9900;" d="M192,176c19.2,0,35.2,13.6,39.2,32H192c-4,0-8,4-8,8v39.2c-18.4-4-32-20-32-39.2
	C152,193.6,169.6,176,192,176z"/>
<path style="fill:#996632;" d="M336,408H47.2C29.6,408,16,394.4,16,376.8V376h32h120v16c0,4,4,8,8,8h160V408z"/>
<g>
	<path style="fill:#42210B;" d="M200,255.2c16-3.2,28-15.2,31.2-31.2H200V255.2z M264,288v-64h-16.8c-3.2,24.8-23.2,44-47.2,47.2
		V288H264z M184,271.2c-27.2-4-48-27.2-48-55.2c0-16,6.4-29.6,16.8-40H136c0,4-4,8-8,8h-16c-4.8,0-8-4-8-8v-16c0-4,3.2-8,8-8h16
		c4,0,8,4,8,8h112c0-4,4-8,8-8h16c4,0,8,4,8,8v16c0,4-4,8-8,8h-16c-4,0-8-4-8-8h-16.8c8.8,8,14.4,19.2,16,32H272c4,0,8,4,8,8v80
		c0,4-4,8-8,8h-80c-4,0-8-4-8-8V271.2z M152,216c0,19.2,13.6,35.2,32,39.2V216c0-4,4-8,8-8h39.2c-4-18.4-20-32-39.2-32
		C169.6,176,152,193.6,152,216z"/>
	<path style="fill:#42210B;" d="M88,328h184h152V136H272h-16H88V328z M72,336V128c0-4,3.2-8,8-8h352c4,0,8,4,8,8v208c0,4-4,8-8,8H80
		C75.2,344,72,340,72,336z"/>
</g>
<path style="fill:#CC9966;" d="M64,104h384c4,0,8,3.2,8,8v248H336H176H56V112C56,107.2,59.2,104,64,104z M72,336c0,4,3.2,8,8,8h352
	c4,0,8-4,8-8V128c0-4-4-8-8-8H80c-4.8,0-8,4-8,8V336z"/>
<path style="fill:#42210B;" d="M328,384v-8H184v8H328z M464.8,424H47.2C20.8,424,0,403.2,0,376.8V368c0-4,3.2-8,8-8h32V112
	c0-12.8,10.4-24,24-24h384c12.8,0,24,10.4,24,24v248h32c4,0,8,4,8,8v8.8C512,403.2,491.2,424,464.8,424z M168,376H48H16v0.8
	c0,17.6,13.6,31.2,31.2,31.2H336h128.8c16.8,0,31.2-13.6,31.2-31.2V376h-32H344v16c0,4-4,8-8,8H176c-4,0-8-4-8-8V376z M64,104
	c-4,0-8,3.2-8,8v248h120h160h120V112c0-4-3.2-8-8-8H64z"/>
<path style="fill:#D9CDC1;" d="M272,136H88v192h184h152V136H272z M400,320H108c-6.4,0-12-4.8-12-12V156c0-6.4,4.8-12,12-12h292
	c8.8,0,16,7.2,16,16v144C416,312.8,408.8,320,400,320z"/>
</svg>