<?xml version="1.0" encoding="iso-8859-1"?>
<!-- Uploaded to: SVG Repo, www.svgrepo.com, Generator: SVG Repo Mixer Tools -->
<svg version="1.1" id="Layer_1" xmlns="http://www.w3.org/2000/svg" xmlns:xlink="http://www.w3.org/1999/xlink" 
	 viewBox="0 0 456 456" xml:space="preserve">
<g>
	<rect x="260.385" y="272" style="fill:#EE5656;" width="16" height="8"/>
	<rect x="252.385" y="248" style="fill:#EE5656;" width="32" height="8"/>
</g>
<path style="fill:#D9CDC1;" d="M369.885,72.9c-29.1-37.4-70.2-59.4-115.6-61.9h-0.1h-9.8c-30.2,0-59.9,8.6-85.8,24.7
	c-40.2,23.9-67.6,66.3-75.1,116.4c-0.1,0.7-0.2,1.4-0.3,2.1c-0.7,5.2-1.5,11.1-3.5,17l-27,88l33.6-3c2.6,0.1,3.4,2,3.7,3l8.2,76.7
	l3.8,3.8l92.1-12.3c0.5-0.1,1-0.1,1.5-0.1c3.7,0,7.9,1.7,11.3,4.6c5.4,4.8,8.6,12.3,8.6,20.2v93h162v-77c0-22.7,2.3-42.1,7.9-66.9
	l17.6-90.6C412.085,161.3,400.085,111.2,369.885,72.9z"/>
<path style="fill:#FFF8EF;" d="M236.385,424v-72c0-13.6-5.6-27.2-16-36c-7.2-6.4-15.2-9.6-24.8-9.6c-1.6,0-3.2,0-4.8,0l-73.6,9.6
	l-6.4-59.2c-0.8-12-11.2-21.6-24-21.6h-0.8h-1.6h-3.2l18.4-59.2c2.4-7.2,3.2-14.4,4.8-23.2c6.4-43.2,30.4-80,65.6-101.6
	c22.4-12,48-19.2,74.4-19.2c3.2,0,5.6,0,8.8,0c40,2.4,75.2,21.6,100,53.6c26.4,34.4,36.8,78.4,28.8,120.8l-17.6,90.4
	c-5.6,26.4-8,46.4-8,71.2v56H236.385z"/>
<path style="fill:#FF9900;" d="M317.485,70.8c-12.4-12.4-28.8-19.3-46.2-19.3c-1.9,0-3.8,0.1-5.6,0.2c-37,1-67.9,33.3-68.7,72.1v0.1
	c0,19.3,7.2,38,19.7,51.4c13.9,15.4,22,35.1,23.5,57l10-0.3V131h-18v8h-6v-11c0-1.2,1.8-3,3-3h80c1.2,0,3,1.8,3,3v11h-6v-8h-18v101
	l10,0.4c1.6-21.7,10-42,24.4-58.7l0.1-0.1c11.6-14.2,17.9-31.5,17.9-48.8C340.585,104.3,332.185,84.7,317.485,70.8z"/>
<path style="fill:#FF7D00;" d="M315.585,105.6c-2.4-0.8-92.8-0.8-95.2,0c7.2-18.4,24.8-32,45.6-32.8c0.8,0,1.6,0,2.4,0
	c12.8,0,24.8,4.8,34.4,14.4C309.185,91.2,313.185,98.4,315.585,105.6z"/>
<rect x="260.385" y="136" style="fill:#FF9900;" width="16" height="96"/>
<path style="fill:#42210B;" d="M377.985,66.4c32,41.6,44.8,95.2,34.4,146.4l-17.6,90.4c-4.8,24-6.4,42.4-6.4,64.8v80c0,4-3.2,8-8,8
	h-168c-4,0-8-4-8-8v-96c0-4.8-1.6-9.6-4.8-12c-1.6-1.6-3.2-1.6-4-1.6l-89.6,12c-4.8,0.8-8.8-0.8-12.8-3.2c-3.2-2.4-5.6-7.2-6.4-11.2
	l-7.2-67.2l-30.4,3.2c-2.4,0-5.6-0.8-7.2-3.2c-1.6-2.4-2.4-4.8-1.6-7.2l28.8-93.6c1.6-6.4,3.2-12.8,4-18.4
	c8-52.8,37.6-98.4,80.8-124.8c27.2-16,58.4-24.8,90.4-24.8c3.2,0,7.2,0,10.4,0C303.585,3.2,347.585,26.4,377.985,66.4z
	 M397.185,210.4c9.6-47.2-2.4-96-32-133.6c-28-36-68-57.6-112-60c-3.2,0-6.4,0-9.6,0c-28.8,0-57.6,8-82.4,23.2
	c-39.2,24-66.4,65.6-72.8,112.8c-0.8,5.6-2.4,12.8-4,20l-24.8,81.6l26.4-2.4c4.8,0,8,2.4,8.8,7.2l8,75.2l0.8,0.8l89.6-12
	c6.4-0.8,12,0.8,16.8,5.6c6.4,5.6,10.4,14.4,10.4,24v88h152v-72c0-23.2,2.4-43.2,7.2-68L397.185,210.4z M351.585,124.8
	c0,20.8-7.2,40.8-20.8,56c-14.4,16.8-22.4,37.6-22.4,59.2c0,4-4,8-8,8v16c0,4-4,8-8,8v16c0,4-4,8-8,8h-32c-4,0-8-4-8-8v-16
	c-4,0-8-4-8-8v-16c-4,0-8-4-8-8c0-22.4-7.2-43.2-20.8-57.6c-14.4-16-22.4-36.8-22.4-59.2c0.8-44,36.8-81.6,80-83.2
	c22.4-0.8,44,7.2,60,23.2C341.985,79.2,351.585,101.6,351.585,124.8z M335.585,124.8c0-19.2-7.2-36.8-21.6-50.4
	c-12.8-12.8-30.4-19.2-48.8-18.4c-35.2,1.6-64,32-64,67.2c0,17.6,6.4,35.2,18.4,48c14.4,16,23.2,36.8,24.8,60l0,0V136h-8v8h-16v-16
	c0-4,4-8,8-8h24h32h24c4,0,8,4,8,8v16h-16v-8h-8v96l0,0c1.6-22.4,10.4-44,25.6-61.6C329.185,157.6,335.585,141.6,335.585,124.8z
	 M284.385,256v-8h-32v8H284.385z M276.385,280v-8h-16v8H276.385z M276.385,232v-96h-16v96H276.385z"/>
</svg>